<?xml version="1.0" encoding="utf-8"?>
<svg viewBox="-100 -100 500 500.001" width="500" height="500.001" xmlns="http://www.w3.org/2000/svg" xmlns:bx="https://boxy-svg.com">
  <defs>
    <linearGradient id="color-0" gradientUnits="userSpaceOnUse" gradientTransform="matrix(1.024181, 0, 0, 1.002904, 3.282996, 0.364173)" bx:pinned="true">
      <title>BrainBackground</title>
      <stop style="stop-color: rgb(78, 150, 198);"/>
    </linearGradient>
  </defs>
  <g style="" transform="matrix(0.931734, 0, 0, 0.951501, 26.500587, 19.329584)">
    <title>Brain</title>
    <ellipse style="stroke: url(#color-0); fill: url(#color-0);" cx="132.548" cy="137.331" rx="268.317" ry="262.743"/>
    <g style="" transform="matrix(1.537992, 0, 0, 1.646588, -66.281471, -64.144173)">
      <title>Brain</title>
      <g style="" transform="matrix(0.934876, -0.331572, 0.38005, 0.934877, -77.246605, 72.870537)">
        <title>Stem</title>
        <path stroke-width="0" d="M 233.934 122.898 C 243.615 126.89 250.869 141.838 246.882 151.521 C 236.583 176.533 212.985 193.683 196.089 214.806 C 191.206 220.911 187.083 227.688 181.545 233.207 C 176.597 238.138 169.215 251.387 164.876 245.911 C 158.356 237.682 162.843 224.233 166.697 214.468 C 175.024 193.371 189.235 175.1 200.577 155.459 C 204.162 149.251 206.348 141.929 211.478 136.922 C 217.793 130.758 225.775 119.534 233.934 122.898 Z" style="stroke-width: 2px; fill: rgb(255, 255, 255); stroke: rgb(255, 255, 255);">
          <title>White</title>
        </path>
        <path stroke-width="0" d="M 245.13 125.341 C 253.554 135.089 255.041 152.039 249.735 163.722 C 242.41 179.851 235.03 182.917 223.168 193.996 C 211.857 204.561 198.708 217.47 189.516 229.565 C 180.023 242.057 180.236 256.381 163.835 253.221 C 160.556 252.589 158.714 247.384 158.344 245.116 C 156.096 231.318 162.42 215.472 168.263 203.757 C 175.16 189.93 182.833 176.5 190.51 163.091 C 199.443 147.488 210.024 129.416 226.888 120.874 C 228.983 119.813 241.998 121.717 245.13 125.341 Z M 172.732 243.119 C 178.434 234.512 183.247 224.438 189.812 216.222 C 195.148 209.545 200.797 203.088 206.893 197.097 C 220.912 183.32 243.721 170.515 242.65 147.509 C 242.355 141.182 240.465 134.029 235.743 129.808 C 230.201 124.854 215.191 142.348 211.832 147.178 C 207.259 153.752 203.342 160.763 199.347 167.703 C 195.576 174.254 192.625 181.279 188.543 187.641 C 185.267 192.747 180.26 196.617 177.111 201.802 C 172.18 209.923 167.928 220.351 165.286 229.312 C 163.807 234.329 166.3 252.828 172.732 243.119 Z" style="stroke-width: 2px; fill: url(#color-0); stroke: url(#color-0);">
          <title>Stroke</title>
        </path>
      </g>
      <g style="">
        <title>Cortex</title>
        <path stroke-width="0" d="M 12.851 28.117 C 17.432 23.847 18.167 16.054 23.347 12.535 C 36.848 3.363 47.257 11.89 59.799 6.39 C 66.455 3.471 76.907 0.224 84.023 -1.252 C 107.083 -6.034 128.608 -2.953 148.084 9.448 C 151.801 11.815 154.217 2.315 158.509 1.317 C 169.772 -1.303 181.552 -1.333 193.113 -1.117 C 195.916 -1.065 198.266 1.092 200.879 2.108 C 213.75 7.111 221.054 13.314 231.681 21.756 C 236.789 25.814 241.647 30.881 246.852 34.814 C 249.516 36.827 253.407 42.536 253.297 45.873 C 252.971 55.751 251.269 56.002 247.649 65.788 C 244.972 73.024 246.489 80.401 245.082 87.987 C 244.935 88.779 241.779 93.356 241.228 93.943 C 239.332 95.962 237.547 98.134 236.181 100.543 C 224.185 121.699 219.013 134.275 187.585 138.93 C 179.996 140.054 173.849 131.325 166.244 130.31 C 159.219 129.373 151.949 131.14 145.19 133.273 C 137.831 135.596 130.961 139.406 124.425 143.509 C 122.035 145.01 120.225 146.467 117.89 148.052 C 116.298 149.133 112.127 152.058 110.31 152.692 C 106.898 153.883 99.578 155.909 95.994 156.37 C 88.912 157.28 86.656 156.531 79.526 156.137 C 73.954 155.829 69.693 153.598 64.727 151.051 C 60.681 148.975 59.507 146.038 56.795 142.387 C 55.134 140.151 53.746 139.341 53.176 136.614 C 52.626 133.982 51.28 131.285 50.98 128.613 C 50.756 126.618 51.157 121.685 51.065 119.68 C 50.852 115.041 52.558 111.944 52.852 108.802 C 53.646 100.327 36.114 112.201 27.617 112.708 C 24.67 112.884 21.88 111.285 18.964 110.823 C 15.786 110.32 12.257 111.228 9.365 109.818 C 4.734 107.559 1.647 102.9 -2.76 100.229 C -4.379 99.248 -7.023 100.471 -8.326 99.097 C -9.469 97.892 -7.95 95.667 -8.555 94.121 C -9.536 91.611 -13.038 90.015 -12.93 87.322 C -12.476 76.009 -9.427 64.934 -6.94 53.888 C -5.528 47.618 -5.168 40.562 -1.254 35.465 C 1.975 31.26 8.973 31.732 12.851 28.117 Z" style="stroke-width: 2px; stroke: rgb(255, 255, 255); fill: rgb(255, 255, 255);">
          <title>White</title>
        </path>
        <path stroke-width="0" d="M 138.107 127.941 C 134.974 127.584 131.556 124.978 128.766 126.447 C 125.758 128.03 125.642 132.49 123.909 135.414 C 121.827 138.927 115.504 142.981 112.014 143.777 C 108.103 144.67 103.943 145.093 99.995 144.382 C 98.067 144.035 95.44 142.734 95.353 140.777 C 95.281 139.142 98.329 139.402 99.738 138.57 C 106.991 134.29 111.645 139.429 119.051 132.051 C 121.077 130.032 120.191 123.107 120.973 120.884 C 123.807 112.825 128.459 105.456 131.008 97.302 C 131.408 96.021 130.832 93.322 129.513 93.565 C 121.96 94.958 107.974 103.805 103.055 110.681 C 100.537 114.201 98.812 118.225 96.632 121.963 C 95.785 123.416 96.237 126.685 92.966 126.479 C 91.62 126.394 90.747 124.885 89.906 123.831 C 86.347 119.372 84.014 113.871 79.818 110.006 C 78.794 109.063 76.384 109.536 75.708 110.753 C 71.82 117.751 75.021 125.493 79.818 130.93 C 81.121 132.407 83.651 131.94 85.423 132.799 C 86.348 133.247 84.731 136.137 84.302 136.162 C 69.614 137.028 69.926 123.98 69.729 111.127 C 69.643 105.522 79.944 104.703 82.06 104.775 C 84.588 104.861 90.101 115.098 92.522 117.479 C 92.975 117.924 92.898 116.246 92.896 115.611 C 92.893 114.269 91.7 112.675 92.507 111.603 C 93.35 110.484 95.325 110.119 96.607 110.682 C 98.16 111.364 98.019 116.702 98.874 115.237 C 100.74 112.038 99.886 107.284 102.61 104.775 C 109.777 98.174 118.265 92.802 127.271 89.082 C 130.299 87.831 135.395 87.712 136.986 90.576 C 140.156 96.282 126.098 119.021 125.777 119.721 C 122.847 126.114 139.382 115.441 145.207 111.501 C 154.767 105.034 153.865 97.044 148.196 86.84 C 146.843 84.405 143.503 83.272 140.723 83.103 C 128.758 82.378 120.848 85.329 111.578 92.071 C 109.721 93.422 108.873 95.85 107.094 97.302 C 106.035 98.166 103.883 100.067 103.291 98.835 C 102.271 96.714 102.873 93.591 104.484 91.875 C 115.122 80.548 132.065 74.14 147.822 78.619 C 155.888 80.912 157.944 100.671 156.416 105.896 C 155.275 109.799 151.809 112.779 148.569 115.237 C 144.442 118.368 131.259 118.503 134.744 122.336 C 153.92 143.429 167.125 105.531 171.736 100.291 C 172.834 99.044 175.523 100.141 176.593 101.412 C 179.788 105.206 180.68 110.55 183.693 114.49 C 184.228 115.189 186.586 114.951 186.308 114.116 C 180.92 97.955 171.449 95.016 185.187 78.619 C 188.788 74.321 197.48 74.616 201.628 75.63 C 203.878 76.18 205.489 78.215 207.232 79.74 C 207.528 79.999 207.526 81.247 207.606 80.861 C 209.17 73.301 209.024 65.304 211.716 58.069 C 213.704 52.727 229.677 43.071 228.157 38.639 C 226.999 35.263 225.902 31.268 222.926 29.298 C 187.021 5.529 201.581 37.101 184.44 62.926 C 181.765 66.956 173.84 69.146 170.241 65.915 C 165.316 61.492 169.448 52.215 166.131 46.486 C 164.493 43.657 158.797 46.077 156.79 43.496 C 152.752 38.305 151.382 28.398 144.833 27.803 C 136.707 27.064 131.307 37.066 123.909 40.507 C 120.454 42.114 116.375 43.752 112.699 42.749 C 109.959 42.002 110.26 36.544 107.468 36.023 C 99.983 34.626 92.176 36.212 84.675 37.518 C 83.305 37.757 83.015 39.906 81.758 40.5 C 77.353 42.582 75.984 35.112 76.825 34.193 C 77.339 33.632 78.391 34.123 79.071 33.781 C 81.665 32.474 83.682 29.796 86.544 29.298 C 87.592 29.116 86.605 32.183 87.664 32.287 C 93.626 32.871 101.52 35.552 105.6 31.166 C 109.06 27.446 101.459 21.169 102.61 16.22 C 103.125 14.006 107.777 16.753 109.336 15.099 C 110.633 13.723 116.623 -9.671 126.524 5.01 C 141.074 26.585 117.435 14.532 113.073 19.583 C 109.735 23.448 112.365 29.845 113.073 34.902 C 113.27 36.308 114.381 38.82 115.688 38.265 C 124.535 34.508 131.712 27.537 140.349 23.319 C 142.599 22.22 145.893 20.976 147.822 22.572 C 153.848 27.559 156.544 35.67 162.021 41.254 C 163.168 42.424 165.678 43.117 166.878 42.002 C 168.772 40.244 171.274 25.881 179.209 30.792 C 184.849 34.283 175.296 42.925 174.725 43.496 C 173.577 44.644 170.683 44.489 170.615 46.112 C 170.397 51.336 170.164 57.856 173.978 61.432 C 176.295 63.604 181.218 60.194 182.572 57.321 C 184.689 52.828 186.495 21.346 198.639 16.594 C 203.789 14.579 209.957 16.748 215.079 18.835 C 220.362 20.987 225.628 24.254 228.904 28.924 C 236.892 40.312 233.913 44.148 226.289 50.969 C 223.893 53.112 219.607 53.578 218.442 56.574 C 214.138 67.642 214.573 80.135 210.595 91.324 C 210.119 92.662 207.451 91.244 206.485 90.203 C 204.014 87.542 203.755 83.079 200.88 80.861 C 196.623 77.577 188.523 81.28 186.308 84.971 C 184.194 88.494 182.746 92.86 183.319 96.928 C 186.913 122.446 196.399 109.911 209.474 99.17 C 210.842 98.046 211.219 95.779 212.837 95.06 C 217.625 92.932 217.203 101.117 215.453 105.149 C 209.271 119.393 197.96 123.38 180.703 118.974 C 176.017 117.778 176.98 105.237 172.483 107.017 C 165.735 109.688 166.865 120.619 162.298 126.259 C 161.128 127.704 158.563 126.198 156.726 126.479 C 150.572 127.42 141.151 128.288 138.107 127.941 Z M 58.103 31.086 C 55.44 29.564 45.021 29.125 43.732 29.261 C 31.183 30.585 18.798 38.997 20.407 53.585 C 20.503 54.455 22.512 53.236 23.005 53.959 C 23.467 54.636 17.125 58.712 16.16 58.758 C 10.842 59.013 6.916 61.919 13.682 71.146 C 15.049 73.01 18.64 71.789 20.592 70.551 C 22.251 69.498 24.532 70.937 26.485 70.721 C 31.099 70.212 36.985 66.827 39.09 62.552 C 41.438 57.784 39.288 51.019 42.824 47.052 C 43.702 46.067 46.018 47.152 46.563 48.354 C 47.75 50.973 45.796 54.503 47.31 56.948 C 48.043 58.132 50.249 55.447 51.42 56.2 C 57.978 60.416 48.016 61.033 48.805 63.3 C 49.764 66.056 52.937 70.243 55.531 68.905 C 60.052 66.572 59.887 59.526 63.347 55.797 C 64.916 54.107 70.623 51.288 69.86 53.464 C 67.084 61.379 63.779 70.459 56.652 74.883 C 53.129 77.07 50.315 68.57 46.189 68.157 C 43.904 67.928 43.835 72.529 41.705 73.388 C 36.405 75.527 30.443 75.395 24.891 76.751 C 23.362 77.124 23.976 80.734 23.939 80.906 C 23.055 85.027 22.286 89.219 20.732 93.136 C 16.719 103.251 8.66 102.077 2.027 95.882 C 0.205 94.18 -1.576 92.401 -3.05 90.391 C -12.834 77.054 -9.055 61.382 4.031 51.579 C 6.345 49.846 10.225 50.771 12.197 48.658 C 15.107 45.54 17.763 37.849 19.848 34.706 C 24.704 27.387 33.342 24.163 41.851 23.64 C 47.774 23.276 55.445 29.439 59.586 25.189 C 59.939 24.826 59.125 23.249 59.384 23.684 C 67.872 37.914 61.348 32.94 58.103 31.086 Z M 16.626 85.31 C 17.599 82.387 21.313 76.691 18.269 76.216 C 12.275 75.281 9.384 77.72 7.703 69.652 C 6.895 65.776 9.445 55.762 6.102 57.883 C -4.983 64.917 -4.297 77.758 2.295 86.896 C 4.575 90.056 6.883 95.731 10.712 95.008 C 11.246 94.907 15.568 88.49 16.626 85.31 Z M 122.396 63.566 C 107.031 66.796 91.438 70.767 78.328 80.025 C 68.586 86.905 62.164 97.629 54.596 106.425 C 53.691 107.477 50.544 105.965 50.849 104.611 C 52.008 99.475 54.931 100.295 57.796 97.373 C 71.591 83.3 82.339 71.5 100.886 63.111 C 111.648 58.244 121.551 57.227 133.072 57.539 C 139.708 57.719 124.056 63.217 122.396 63.566 Z M 113.82 15.099 C 115.057 17.82 120.474 16.992 122.788 15.099 C 128.4 10.507 106.717 -0.524 113.82 15.099 Z M 108.589 23.319 C 108.589 22.049 108.589 24.278 108.589 23.319 Z M 15.924 50.969 C 15.09 50.728 13.766 53.41 14.614 53.221 C 16.355 52.834 16.403 51.107 15.924 50.969 Z M 202.749 110.006 C 201.776 110.784 199.309 113.337 200.507 112.995 C 203.574 112.118 204.165 108.873 202.749 110.006 Z" style="stroke-width: 2px; paint-order: stroke; stroke: rgb(78, 150, 198); fill: url(#color-0);">
          <title>InnerStroke</title>
        </path>
        <path stroke-width="0" d="M 134.459 -1.488 C 135.573 -1.141 136.893 -2.231 137.95 -1.737 C 139.671 -0.932 141.371 0.018 142.775 1.298 C 144.328 2.713 144.629 5.863 146.697 6.234 C 148.266 6.515 148.54 3.594 149.743 2.548 C 151.358 1.144 153.179 -0.032 155.066 -1.043 C 160.843 -4.137 172.12 -6.387 176.804 -7.121 C 189.58 -9.122 199.706 -3.745 209.532 2.97 C 210.779 3.822 222.562 8.702 220.811 9.62 C 216.882 11.68 213.78 6.393 210.577 5.478 C 206.572 4.334 202.255 4.47 198.295 3.179 C 191.401 0.932 186.88 -2.872 178.283 -1.596 C 172.542 -0.744 157.438 1.554 152.626 7.866 C 150.214 11.03 151.684 18.55 147.369 17.451 C 145.306 16.926 143.218 9.758 142.6 8.864 C 141.229 6.881 139.97 4.073 137.598 3.642 C 135.665 3.291 133.62 3.755 131.714 3.276 C 129.027 2.6 126.636 0.668 123.868 0.528 C 106.586 -0.344 89.508 -2.984 72.868 2.543 C 65.258 5.071 65.309 7.193 57.96 11.337 C 55.241 12.87 51.743 9.762 49.722 9.322 C 45.509 8.404 39.199 9.57 35.599 11.337 C 31.046 13.572 26.635 16.228 22.751 19.491 C 20.045 21.765 17.957 24.739 16.082 27.735 C 15.487 28.685 16.006 31.863 14.218 32.591 C 11.642 33.64 8.71 33.775 6.255 35.083 C 3.185 36.719 -3.696 48.304 -3.773 48.438 C -13.406 65.188 -15.794 79.169 -6.716 96.624 C -4.41 101.058 -2.306 102.235 2.602 103.678 C 14.964 107.313 29.97 111.342 42.813 107.342 C 46.446 106.21 50.967 103.941 53.896 101.205 C 55.755 99.469 57.255 97.375 59.094 95.617 C 60.072 94.682 63.539 92.92 62.851 94.084 C 60.786 97.577 56.978 100.047 55.601 103.865 C 47.698 125.778 54.45 146.519 77.924 155.162 C 81.483 156.472 85.523 155.491 89.301 155.162 C 110.376 153.327 125.897 138.343 144.224 129.512 C 145.701 128.8 147.527 129.496 149.128 129.145 C 152.845 128.33 156.38 126.774 160.112 126.03 C 167.303 124.597 173.257 133.441 180.316 134.825 C 191.262 136.971 206.934 130.018 215.427 125.481 C 218.884 123.634 221.815 120.871 224.548 118.061 C 230.412 112.032 228.064 109.208 231.609 102.121 C 232.938 99.464 236.608 98.752 238.475 96.441 C 240.953 93.374 245.71 85.615 246.686 80.357 C 247.236 77.395 247.835 72.068 246.463 69.111 C 245.914 67.928 243.646 66.848 244.402 65.785 C 248.24 60.388 252.764 55.363 252.009 48.072 C 251.796 46.013 249.883 40.237 247.989 38.453 C 245.113 35.745 240.872 34.746 238.083 31.949 C 234.858 28.714 232.759 23.473 229.211 20.01 C 226.13 17.002 223.4 15.16 220.538 11.979 C 219.63 10.97 218.352 10.367 217.297 9.513 C 216.951 9.233 215.906 8.425 216.304 8.623 C 225.905 13.4 229.774 15.339 239.26 23.338 C 240.663 24.521 240.917 27.414 242.607 28.131 C 247.06 30.021 247.947 29.112 253.383 36.163 C 259.231 43.748 258.031 52.795 254.756 60.897 C 253.873 63.082 250.181 63.909 250.156 66.266 C 250.104 71.164 252.571 76.028 251.813 80.868 C 250.254 90.819 244.268 97.529 237.367 103.975 C 234.795 106.377 233.573 116.322 230.041 120.259 C 218.873 132.709 197.344 143.445 180.316 140.138 C 172.115 138.545 165.063 129.899 156.974 131.893 C 129.231 138.732 97.89 174.446 68.313 155.895 C 64.308 153.383 60.092 150.988 56.838 147.558 C 53.865 144.424 51.906 140.429 49.973 136.566 C 48.488 133.599 46.773 125.768 47.423 122.458 C 48.298 118.002 52.841 113.712 51.365 109.418 C 50.5 106.902 46.548 111.738 43.99 112.472 C 41.051 113.315 38.008 113.806 34.967 114.122 C 21.432 115.528 1.211 113.748 -8.873 103.403 C -24.776 87.088 -18.493 62.402 -8.481 45.507 C -7.867 44.471 -0.9 32.332 2.842 30.575 C 5.175 29.48 8.174 29.789 10.197 28.193 C 11.826 26.907 11.714 24.277 12.943 22.605 C 18.878 14.531 24.122 10.758 33.638 6.39 C 37.434 4.648 44.563 3.296 49.133 4.008 C 51.49 4.375 53.709 6.691 55.999 6.024 C 61.341 4.468 65.376 -0.084 70.514 -2.221 C 76.979 -4.91 117.826 -6.665 134.459 -1.488 Z" style="stroke-width: 2px; fill: url(#color-0); stroke: url(#color-0);">
          <title>Stroke</title>
        </path>
      </g>
      <g transform="matrix(0.650199, 0, 0, 0.607317, 38.077682, 27.02412)" style="">
        <title>RoundThing</title>
        <path stroke-width="0" d="M 188.99 169.6 C 195.398 168.196 221.325 187.86 226.994 193.017 C 229.204 195.027 233.762 197.339 232.534 200.062 C 220.304 227.19 210.518 246.677 180.227 246.782 C 167.231 246.827 104.296 241.114 133.653 197.509 C 145.631 179.717 168.039 174.191 188.99 169.6 Z" style="stroke-width: 2px; fill: rgb(255, 255, 255); stroke: rgb(255, 255, 255);">
          <title>RoundThingWhite</title>
        </path>
        <path stroke-width="0" d="M 180.416 163.912 C 199.574 158.556 226.753 187.351 233.865 193.409 C 236.73 195.85 243.75 205.483 240.518 210.708 C 229.495 228.529 214.174 248.635 191.505 251.737 C 182.272 253 172.861 253.23 163.561 252.624 C 144.023 251.35 118.721 230.108 121.201 208.49 C 122.472 197.412 130.836 189.225 138.721 182.542 C 150.054 172.936 169.916 166.848 180.416 163.912 Z M 184.186 171.896 C 177.101 173.184 170.378 176.103 163.782 178.993 C 148.669 185.616 121.891 200.06 132.29 221.575 C 134.753 226.672 139.037 230.806 143.379 234.438 C 171.801 258.209 219.328 240.171 232.534 207.381 C 233.806 204.224 229.357 201.163 226.768 198.953 C 216.086 189.832 204.912 181.203 193.057 173.67 C 190.512 172.053 187.153 171.357 184.186 171.896 Z" style="stroke-width: 2px; fill: url(#color-0); stroke: url(#color-0);">
          <title>RoundThingStroke</title>
        </path>
      </g>
    </g>
  </g>
</svg>