<?xml version="1.0" encoding="utf-8"?>
<svg viewBox="-250 -250 500 500.001" width="500" height="500.001" xmlns="http://www.w3.org/2000/svg" xmlns:bx="https://boxy-svg.com">
  <defs>
    <linearGradient id="color-1" gradientUnits="userSpaceOnUse" bx:pinned="true">
      <title>HeartBackground</title>
      <stop style="stop-color: #d8d8d8;"/>
    </linearGradient>
    <linearGradient id="color-2" gradientUnits="userSpaceOnUse" gradientTransform="matrix(1.40346, 0, 0.044152, 0.906562, -1002.167743, -1862.247087)" bx:pinned="true">
      <title>HeartForeground</title>
      <stop style="stop-color: rgb(240, 0, 0);"/>
    </linearGradient>
  </defs>
  <g style="" transform="matrix(0.931734, 0, 0, 0.951501, 276.500427, 269.329041)" bx:origin="0 0">
    <title>Heart</title>
    <ellipse style="fill: url(#color-1); stroke: url(#color-1); pointer-events: none;" cx="-296.759" cy="-283.057" rx="268.317" ry="262.743"/>
    <path style="fill: url(#color-2); stroke: url(#color-2);" d="M -297.371 -94.602 C -297.371 -94.602 -176.003 -191.433 -137.518 -256.296 C -118.452 -288.431 -101.05 -326.452 -105.67 -363.34 C -108.237 -383.835 -110.282 -400.482 -121.386 -414.644 C -132.829 -429.239 -156.248 -438.867 -169.366 -443.622 C -189.278 -450.841 -213.257 -451.115 -233.063 -443.622 C -259.654 -433.563 -296.373 -387.325 -296.373 -387.325 C -296.373 -387.325 -333.772 -433.976 -360.75 -444.012 C -380.507 -451.362 -404.355 -450.869 -424.152 -443.622 C -437.255 -438.826 -460.689 -429.239 -472.132 -414.644 C -483.236 -400.482 -485.281 -383.835 -487.848 -363.34 C -492.468 -326.452 -475.003 -288.466 -456 -256.296 C -417.783 -191.6 -297.371 -94.602 -297.371 -94.602 Z"/>
  </g>
</svg>