<?xml version="1.0" encoding="utf-8"?>
<svg viewBox="-250.233 -249.591 500 500.001" width="500" height="500.001" xmlns="http://www.w3.org/2000/svg" xmlns:bx="https://boxy-svg.com">
  <defs>
    <linearGradient id="color-3" gradientUnits="userSpaceOnUse" bx:pinned="true">
      <title>SubBackground</title>
      <stop style="stop-color: rgb(255, 166, 0);"/>
    </linearGradient>
  </defs>
  <g style="" transform="matrix(0.931734, 0, 0, 0.951501, 276.267487, 269.7388)" bx:origin="0 0">
    <title>Sub</title>
    <ellipse style="pointer-events: none; stroke: url(#color-3); fill: rgb(255, 166, 0);" cx="-296.759" cy="-283.057" rx="268.317" ry="262.743"/>
    <path stroke-width="0" d="M -126.534 -331.827 C -139.73 -325.824 -159.962 -320.988 -175.193 -319.248 C -182.058 -318.464 -188.124 -322.483 -195.23 -324.038 C -203.078 -325.757 -211.839 -325.112 -216.392 -326.083 C -222.887 -327.469 -228.441 -324.898 -231.308 -320.51 C -236.815 -312.081 -233.845 -311.841 -227.895 -304.72 C -213.154 -287.077 -201.297 -264.975 -188.235 -246.592 C -178.99 -233.584 -169.062 -224.269 -161.133 -210.774 C -160.581 -209.832 -155.295 -196.219 -141.58 -194.707 C -129.373 -193.362 -108.155 -183.614 -104.042 -178.352 C -103.808 -178.052 -160.17 -178.352 -160.17 -178.352 L -184.445 -204.2 C -200.966 -222.926 -204.575 -227.915 -220.298 -247.029 C -237.119 -267.475 -254.072 -288.063 -272.426 -307.741 C -275.208 -310.724 -287.178 -319.677 -307.937 -321.133 C -313.681 -321.536 -335.089 -320.013 -338.588 -296.295 C -342.77 -267.94 -315.71 -248.127 -297.042 -230.026 C -292.843 -225.953 -284.414 -215.354 -279.633 -211.742 C -272.213 -206.135 -279.927 -178.218 -296.509 -178.218 C -324.573 -178.218 -496.936 -178.352 -496.936 -178.352 C -496.936 -178.352 -502.411 -189.076 -496.935 -194.438 C -490.321 -200.915 -468.874 -201.099 -468.874 -201.099 C -468.874 -201.099 -452.377 -207.44 -428.022 -213.403 C -411.856 -217.361 -399.888 -217.954 -392.028 -217.484 C -378.485 -216.671 -358.045 -215.477 -361.566 -218.065 C -385.325 -235.523 -399.783 -240.47 -421.692 -259.261 C -436.32 -271.805 -446.829 -295.218 -434.084 -318.149 C -402.598 -374.799 -373.548 -368.849 -328.554 -374.639 C -316.459 -376.197 -273.022 -371.966 -260.98 -370.193 C -250.299 -368.62 -213.71 -360.193 -214.92 -360.193 C -215.26 -360.193 -202.303 -370.828 -199.8 -376.276 C -193.509 -389.968 -187.994 -396.402 -182.794 -399.873 C -180.894 -402.623 -166.449 -412.145 -161.497 -413.374 C -156.276 -414.67 -145.842 -414.796 -144.104 -414.92 C -138.446 -415.324 -132.814 -415.44 -127.22 -414.146 C -121.126 -412.736 -114.923 -410.705 -109.06 -406.223 C -99.964 -399.271 -97.186 -390.42 -96.164 -383.073 C -95.651 -379.38 -96.678 -345.408 -126.534 -331.827 Z" style="stroke-width: 2px; stroke: rgb(0, 0, 0);"/>
  </g>
</svg>